<svg viewBox="0 0 64 64" xmlns="http://www.w3.org/2000/svg">
  <defs>
    <linearGradient id="purpleGlow" x1="0%" y1="0%" x2="100%" y2="100%">
      <stop offset="0%" style="stop-color:#a277ff;stop-opacity:1"/>
      <stop offset="50%" style="stop-color:#8c5cf5;stop-opacity:1"/>
      <stop offset="100%" style="stop-color:#7341df;stop-opacity:1"/>
    </linearGradient>
    
    <filter id="glow" x="-50%" y="-50%" width="200%" height="200%">
      <feGaussianBlur stdDeviation="2" result="coloredBlur"/>
      <feMerge>
        <feMergeNode in="coloredBlur"/>
        <feMergeNode in="SourceGraphic"/>
      </feMerge>
    </filter>
    
    <radialGradient id="darkBg">
      <stop offset="0%" style="stop-color:#181818;stop-opacity:1"/>
      <stop offset="100%" style="stop-color:#0b0b0b;stop-opacity:1"/>
    </radialGradient>
  </defs>
  
  <!-- Dark background -->
  <rect width="64" height="64" fill="url(#darkBg)" rx="12"/>
  
  <!-- Abstract geometric network pattern -->
  
  <!-- Outer nodes -->
  <circle cx="32" cy="12" r="3" fill="#8c5cf5" filter="url(#glow)"/>
  <circle cx="52" cy="32" r="3" fill="#8c5cf5" filter="url(#glow)"/>
  <circle cx="32" cy="52" r="3" fill="#8c5cf5" filter="url(#glow)"/>
  <circle cx="12" cy="32" r="3" fill="#8c5cf5" filter="url(#glow)"/>
  
  <!-- Connecting lines -->
  <line x1="32" y1="12" x2="32" y2="32" stroke="url(#purpleGlow)" stroke-width="2" opacity="0.6"/>
  <line x1="52" y1="32" x2="32" y2="32" stroke="url(#purpleGlow)" stroke-width="2" opacity="0.6"/>
  <line x1="32" y1="52" x2="32" y2="32" stroke="url(#purpleGlow)" stroke-width="2" opacity="0.6"/>
  <line x1="12" y1="32" x2="32" y2="32" stroke="url(#purpleGlow)" stroke-width="2" opacity="0.6"/>
  
  <!-- Center hub - larger and brighter -->
  <circle cx="32" cy="32" r="8" fill="url(#purpleGlow)" filter="url(#glow)"/>
  <circle cx="32" cy="32" r="5" fill="#a277ff" opacity="0.8"/>
  <circle cx="32" cy="32" r="3" fill="#c2a8fd"/>
  
  <!-- Corner accent dots -->
  <circle cx="20" cy="20" r="1.5" fill="#8c5cf5" opacity="0.5"/>
  <circle cx="44" cy="20" r="1.5" fill="#8c5cf5" opacity="0.5"/>
  <circle cx="20" cy="44" r="1.5" fill="#8c5cf5" opacity="0.5"/>
  <circle cx="44" cy="44" r="1.5" fill="#8c5cf5" opacity="0.5"/>
</svg>